# xmcd CD database file
#
# Track frame offsets:
#	150
#	15759
#	41232
#	69433
#	87372
#	104473
#	129964
#	163793
#
# Disc length: 4440 seconds
#
# Revision: 0
# Processed by: cddbd v1.5.1PL0 Copyright (c) Steve Scherf et al.
# Submitted via: CDex 1.51
#
DISCID=5d115608
DTITLE=yoonji - All of my heart
DYEAR=2004
DGENRE=JPop
TTITLE0=AIR
TTITLE1=向かい風
TTITLE2=あの空の色とボクのこと
TTITLE3=whats you said?
TTITLE4=I'm still loving you
TTITLE5=光立つ丘
TTITLE6=M
TTITLE7=CCCD
EXTD=YEAR: 2004
EXTT0=
EXTT1=
EXTT2=
EXTT3=
EXTT4=
EXTT5=
EXTT6=
EXTT7=
PLAYORDER=
